PathFileType   4   (X/Y/Z)
DataRate  CameraRate  NumFrames  NumMarkers  Units  OrigDataRate  OrigDataStartFrame  OrigNumFrames  
  120.0      120.0        4         37         mm      120.0          53        105
Frame#      Time                    midhip                           hip_r                           hip_l                          knee_r                          knee_l                         ankle_r                         ankle_l                         midasis                          asis_r                          asis_l                          psis_r                          psis_l                    epicondLat_r                    epicondLat_l                    epicondMed_r                    epicondMed_l                  malleolusLat_r                  malleolusLat_l                 malleolusMedv_r                 malleolusMedv_l                    sternalnotch                  xyphoidprocess                            neck                           toe_r                           toe_l                     thighwand_r                     thighwand_l                     upperleg1_r                     upperleg1_l                     upperleg2_r                     upperleg2_l                     shankwand_r                     shankwand_l                     lowerleg1_r                     lowerleg1_l                   subclavicle_r                   subclavicle_l            
              X1          Y1          Z1          X2          Y2          Z2          X3          Y3          Z3          X4          Y4          Z4          X5          Y5          Z5          X6          Y6          Z6          X7          Y7          Z7          X8          Y8          Z8          X9          Y9          Z9          X10          Y10          Z10          X11          Y11          Z11          X12          Y12          Z12          X13          Y13          Z13          X14          Y14          Z14          X15          Y15          Z15          X16          Y16          Z16          X17          Y17          Z17          X18          Y18          Z18          X19          Y19          Z19          X20          Y20          Z20          X21          Y21          Z21          X22          Y22          Z22          X23          Y23          Z23          X24          Y24          Z24          X25          Y25          Z25          X26          Y26          Z26          X27          Y27          Z27          X28          Y28          Z28          X29          Y29          Z29          X30          Y30          Z30          X31          Y31          Z31          X32          Y32          Z32          X33          Y33          Z33          X34          Y34          Z34          X35          Y35          Z35          X36          Y36          Z36          X37          Y37          Z37          

	53	0.55833	1831.674	742.845	-293.347	1825.993	741.335	-236.221	1837.354	744.355	-350.473	1921.322	406.728	-224.996	1704.292	419.229	-332.265	2008.747	66.358	-234.009	1510.654	105.175	-325.486	1864.691	816.747	-288.651	1868.827	820.392	-178.635	1860.555	813.102	-398.667	1686.993	843.333	-240.597	1689.871	841.169	-295.183	1956.148	417.943	-165.597	1712.528	396.178	-390.339	1929.654	412.447	-287.641	1729.395	405.497	-273.415	2003.673	64.346	-196.908	1506.555	106.942	-361.712	2012.053	61.653	-267.252	1505.322	111.134	-292.457	1852.821	1162.828	-284.872	1857.035	1060.936	-291.393	1749.727	1236.355	-279.238	2091.970	55.250	-224.873	1582.464	53.442	-321.821	2011.651	589.840	-197.548	1861.303	523.925	-416.139	1951.426	603.809	-157.003	1854.030	573.003	-350.000	1960.953	546.117	-164.462	1832.750	519.467	-340.403	2104.152	204.588	-206.270	1566.408	185.432	-454.034	2033.273	175.378	-223.896	1557.934	183.890	-375.575	1854.250	1160.724	-229.001	1856.923	1164.976	-334.438
	54	0.56667	1842.115	743.719	-292.533	1836.290	742.366	-235.418	1847.940	745.073	-349.649	1928.819	408.316	-225.460	1717.428	419.164	-332.273	2010.458	66.125	-234.332	1516.525	110.419	-326.102	1874.786	817.701	-287.976	1878.647	821.700	-177.922	1870.926	813.703	-398.031	1696.677	843.953	-240.852	1700.370	841.419	-295.569	1964.542	418.678	-166.068	1726.979	395.279	-390.384	1936.311	412.829	-285.290	1742.412	408.544	-268.806	2005.714	64.266	-197.180	1512.539	112.331	-362.334	2012.647	61.849	-267.711	1510.686	117.011	-293.097	1863.034	1163.878	-283.689	1867.549	1062.004	-290.296	1759.511	1237.262	-278.326	2093.276	53.286	-225.605	1585.788	54.385	-321.784	2021.219	590.320	-198.284	1875.175	524.778	-414.915	1961.815	605.814	-157.410	1867.455	573.954	-349.280	1970.620	547.488	-164.258	1846.004	520.646	-338.448	2108.639	202.543	-207.776	1574.672	189.137	-454.457	2036.722	175.068	-224.312	1565.117	187.812	-376.430	1864.331	1161.711	-227.488	1867.253	1166.098	-333.573
	55	0.57500	1852.474	744.904	-291.575	1846.487	743.741	-234.472	1858.462	746.067	-348.678	1936.401	410.299	-225.870	1731.887	419.068	-332.322	2011.783	65.982	-234.639	1523.408	115.959	-326.661	1884.816	818.913	-287.217	1888.362	823.301	-177.138	1881.270	814.525	-397.296	1706.391	844.709	-241.300	1710.790	841.911	-296.037	1972.317	419.388	-166.446	1742.112	394.440	-390.560	1943.415	414.916	-285.930	1755.647	410.455	-266.291	2007.393	64.253	-197.437	1519.481	118.030	-362.890	2013.590	61.630	-268.063	1517.498	122.474	-293.617	1873.210	1165.064	-282.312	1877.660	1063.186	-288.893	1769.771	1238.508	-277.287	2094.187	51.825	-226.307	1589.574	55.332	-321.686	2030.382	590.677	-199.036	1889.541	525.942	-413.674	1971.616	607.452	-157.878	1880.742	575.217	-348.022	1979.822	548.980	-164.896	1859.371	521.973	-336.654	2112.551	200.713	-209.306	1583.710	193.199	-454.837	2039.669	174.809	-225.373	1573.804	191.776	-376.703	1874.290	1162.881	-225.607	1877.623	1167.296	-332.681
	56	0.58333	1862.800	746.289	-290.501	1856.647	745.331	-233.412	1868.953	747.247	-347.590	1943.222	411.918	-226.192	1750.723	416.122	-332.476	2012.686	65.889	-234.919	1531.381	121.687	-327.163	1894.753	820.329	-286.380	1897.950	825.117	-176.297	1891.556	815.542	-396.463	1716.139	845.635	-241.899	1721.125	842.642	-296.538	1979.385	419.999	-166.673	1757.852	393.682	-390.852	1950.292	416.610	-287.166	1773.107	407.169	-267.092	2008.662	64.262	-197.671	1527.459	123.939	-363.382	2014.189	61.305	-268.330	1525.609	127.836	-294.070	1883.387	1166.287	-280.705	1887.559	1064.392	-287.216	1780.169	1240.003	-275.749	2094.754	50.749	-226.900	1593.838	56.254	-321.599	2039.103	590.854	-199.701	1904.266	527.399	-412.536	1981.067	608.355	-158.825	1893.200	576.647	-345.949	1988.463	550.178	-165.899	1873.731	523.086	-335.396	2115.914	199.057	-210.772	1593.607	197.590	-455.165	2042.278	174.180	-226.207	1583.895	196.145	-376.589	1884.353	1164.128	-223.811	1887.902	1168.482	-331.253
